<?xml version="1.0" standalone="no"?>
<!DOCTYPE svg PUBLIC "-//W3C//DTD SVG 20010904//EN"
 "http://www.w3.org/TR/2001/REC-SVG-20010904/DTD/svg10.dtd">
<svg version="1.0" xmlns="http://www.w3.org/2000/svg"
 width="200.000000pt" height="200.000000pt" viewBox="0 0 200.000000 200.000000"
 preserveAspectRatio="xMidYMid meet">
<metadata>
Created by potrace 1.11, written by Peter Selinger 2001-2013
</metadata>
<g transform="translate(0.000000,200.000000) scale(0.100000,-0.100000)"
fill="#000000" stroke="none">
<path d="M0 1000 l0 -1000 1000 0 1000 0 0 1000 0 1000 -1000 0 -1000 0 0
-1000z m1291 660 c95 -33 140 -37 158 -16 16 19 42 25 69 15 22 -8 22 -10 20
-206 l-3 -198 -34 0 c-34 0 -34 1 -60 80 -45 139 -95 205 -191 249 -37 17 -65
21 -160 21 -112 0 -117 -1 -178 -34 -98 -53 -149 -128 -188 -276 -16 -59 -19
-107 -19 -300 0 -210 2 -238 23 -315 30 -107 65 -172 120 -221 62 -54 126 -74
247 -74 120 0 186 21 252 78 55 49 85 101 118 207 30 97 46 115 83 92 11 -7
17 -197 12 -409 0 -7 -9 -17 -20 -23 -17 -9 -28 -7 -56 10 -41 26 -68 24 -204
-13 -320 -90 -620 47 -780 356 -55 107 -74 203 -67 341 3 67 13 135 25 172 62
198 188 347 367 437 144 72 306 82 466 27z"/>
</g>
</svg>
